<svg width="60" height="60" viewBox="0 0 60 60" fill="none" xmlns="http://www.w3.org/2000/svg">
<mask id="mask0_1_354" style="mask-type:alpha" maskUnits="userSpaceOnUse" x="0" y="0" width="60" height="60">
<circle cx="30" cy="30" r="30" fill="#D9D9D9"/>
</mask>
<g mask="url(#mask0_1_354)">
</g>
<g clip-path="url(#clip0_1_354)">
<path d="M30 60C46.5685 60 60 46.5685 60 30C60 13.4315 46.5685 0 30 0C13.4315 0 0 13.4315 0 30C0 46.5685 13.4315 60 30 60Z" fill="#FEFEFE"/>
<path d="M36.9009 46.1204H23.1036C18.1052 46.1204 14.0396 42.0549 14.0396 37.0564V23.2637C14.0396 18.2653 18.1052 14.1997 23.1036 14.1997H36.9009C41.8994 14.1997 45.9649 18.2653 45.9649 23.2637V37.061C45.9603 42.0549 41.8948 46.1204 36.9009 46.1204ZM23.1036 17.6845C20.0305 17.6845 17.5289 20.186 17.5289 23.2592V37.0564C17.5289 40.1296 20.0305 42.6311 23.1036 42.6311H36.9009C39.9741 42.6311 42.4756 40.1296 42.4756 37.0564V23.2637C42.4756 20.1906 39.9741 17.689 36.9009 17.689H23.1036V17.6845Z" fill="#99CC66"/>
<path d="M30 38.9725C25.0519 38.9725 21.0275 34.9481 21.0275 29.9999C21.0275 25.0517 25.0519 21.0273 30 21.0273C34.9482 21.0273 38.9726 25.0517 38.9726 29.9999C38.9726 34.9435 34.9482 38.9725 30 38.9725ZM30 24.0091C26.6982 24.0091 24.0137 26.6935 24.0137 29.9953C24.0137 33.2972 26.6982 35.9816 30 35.9816C33.3019 35.9816 35.9863 33.2972 35.9863 29.9953C35.9863 26.6935 33.3019 24.0091 30 24.0091Z" fill="#99CC66"/>
<path d="M38.6524 23.3277C39.7107 23.3277 40.5686 22.4698 40.5686 21.4115C40.5686 20.3533 39.7107 19.4954 38.6524 19.4954C37.5942 19.4954 36.7363 20.3533 36.7363 21.4115C36.7363 22.4698 37.5942 23.3277 38.6524 23.3277Z" fill="#99CC66"/>
</g>
<defs>
<clipPath id="clip0_1_354">
<rect width="60" height="60" fill="white"/>
</clipPath>
</defs>
</svg>
