<svg width="60" height="60" viewBox="0 0 60 60" fill="none" xmlns="http://www.w3.org/2000/svg">
<circle cx="30" cy="30" r="30" fill="white"/>
<path d="M40.928 27.8465C40.9654 23.1946 37.1273 18.9293 32.3724 18.34L32.0607 18.2932C31.8222 18.2459 31.5803 18.2188 31.3373 18.2122C30.3614 18.2122 30.1026 18.9168 30.034 19.3377C29.9951 19.5125 29.9916 19.6934 30.0237 19.8696C30.0559 20.0457 30.123 20.2137 30.2211 20.3635C30.5453 20.8156 31.1128 20.8936 31.568 20.9622C31.7021 20.9809 31.8299 20.9965 31.9328 21.0245C36.2075 22.0067 37.648 23.5563 38.3495 27.9307C38.3682 28.0398 38.3744 28.1708 38.3807 28.3111C38.4118 28.8318 38.4773 29.9199 39.6122 29.9199C39.7058 29.9199 39.8056 29.9137 39.9116 29.895C40.9685 29.7297 40.9342 28.7351 40.9186 28.2581C40.9108 28.1428 40.9108 28.0272 40.9186 27.912C40.9221 27.8914 40.9242 27.8705 40.9249 27.8496L40.928 27.8465Z" fill="#99CC66"/>
<path d="M31.063 16.6315C31.1877 16.6409 31.3124 16.6502 31.4091 16.6658C38.4244 17.782 41.6545 21.2117 42.5494 28.5139C42.565 28.6386 42.565 28.7883 42.5681 28.9504C42.5774 29.521 42.5961 30.7058 43.8308 30.7307H43.8682C44.0378 30.7397 44.2073 30.7124 44.3653 30.6506C44.5234 30.5887 44.6665 30.4938 44.7849 30.3722C45.1684 29.9575 45.1435 29.3433 45.1216 28.8444C45.1154 28.7259 45.1092 28.6105 45.1123 28.5108C45.1996 21.0434 38.9388 14.2713 31.7115 14.0218L31.6242 14.0249C31.5963 14.029 31.5682 14.0311 31.54 14.0312C31.4683 14.0312 31.3779 14.0249 31.2843 14.0187C31.1599 14.0073 31.0351 14.0011 30.9102 14C29.7597 14 29.5414 14.8418 29.5134 15.3469C29.451 16.5099 30.5392 16.5941 31.063 16.6315ZM42.2095 37.9487C42.0594 37.8311 41.9107 37.7115 41.7636 37.5901C40.9966 36.9541 40.1798 36.3679 39.394 35.8005C39.2296 35.6823 39.0654 35.5638 38.9014 35.445C37.8912 34.7154 36.9839 34.3569 36.1265 34.3569C34.9728 34.3569 33.9657 35.0179 33.1333 36.318C32.7653 36.8917 32.3164 37.1723 31.7676 37.1723C31.3845 37.1587 31.009 37.0619 30.667 36.8886C27.4088 35.3608 25.0797 33.0224 23.7483 29.9357C23.1061 28.4391 23.3118 27.4663 24.4468 26.6712C25.089 26.2222 26.2863 25.3835 26.2021 23.7778C26.1086 21.9538 22.2081 16.4663 20.565 15.8427C19.864 15.5782 19.0911 15.5759 18.3886 15.8365C16.5023 16.4912 15.146 17.6448 14.4694 19.1633C13.8147 20.6349 13.8458 22.3591 14.5567 24.155C16.6052 29.3495 19.483 33.8767 23.1185 37.612C26.6729 41.2693 31.0443 44.2625 36.1078 46.5136C36.563 46.7163 37.0431 46.8254 37.3923 46.9065L37.6885 46.9813C37.7291 46.993 37.771 46.9992 37.8133 47H37.8538C40.2359 47 43.095 44.7551 43.9743 42.1922C44.7444 39.9473 43.3382 38.8404 42.2095 37.9518V37.9487ZM32.1168 22.5649C31.7115 22.5743 30.8603 22.5961 30.561 23.4878C30.4238 23.9056 30.4394 24.2673 30.6109 24.5635C30.8634 25 31.3498 25.1341 31.7894 25.2058C33.3858 25.4708 34.2089 26.3844 34.3711 28.0743C34.449 28.8662 34.9635 29.415 35.6245 29.415C35.6744 29.416 35.7244 29.4139 35.7741 29.4087C36.5692 29.309 36.9527 28.7072 36.9184 27.6159C36.9309 26.4748 36.3541 25.184 35.3719 24.155C34.3867 23.1199 33.1987 22.5368 32.1168 22.5649Z" fill="#99CC66"/>
</svg>
