<svg width="60" height="60" viewBox="0 0 60 60" fill="none" xmlns="http://www.w3.org/2000/svg">
<mask id="mask0_1_366" style="mask-type:alpha" maskUnits="userSpaceOnUse" x="0" y="0" width="60" height="60">
<circle cx="30" cy="30" r="30" fill="#D9D9D9"/>
</mask>
<g mask="url(#mask0_1_366)">
</g>
<g clip-path="url(#clip0_1_366)">
<path d="M29.6889 0C30.3518 0 31.0146 0 31.6775 0C31.7415 0.0697742 31.8287 0.0552379 31.913 0.0581452C31.9944 0.0552379 32.0816 0.0697742 32.1485 0C32.2648 0 32.384 0 32.5002 0C33.3695 0.130827 34.2504 0.113383 35.1226 0.200601C37.3147 0.421552 39.3875 1.11057 41.4139 1.92751C44.9579 3.36079 48.0948 5.41622 50.8712 8.06473C53.4238 10.501 55.5112 13.2687 57.0957 16.4086C58.276 18.7489 59.1627 21.2084 59.6599 23.7901C59.8721 24.8832 59.8634 26.0025 59.9477 27.1131C59.9564 27.2439 59.9041 27.3864 60.0058 27.5056C60.0058 27.6219 60.0058 27.7411 60.0058 27.8573C59.9215 27.9736 59.9215 28.0928 60.0058 28.2091C60.0058 28.4039 60.0058 28.5987 60.0058 28.7935C59.9128 29.0668 59.9128 29.34 60.0058 29.6133C60.0058 29.8488 60.0058 30.0814 60.0058 30.3169C59.9128 30.5902 59.9128 30.8635 60.0058 31.1367C60.0058 31.3315 60.0058 31.5263 60.0058 31.7211C59.9331 31.7996 59.9331 31.8781 60.0058 31.9566C60.0058 32.1514 60.0058 32.3462 60.0058 32.5409C59.8605 33.3143 59.8721 34.0992 59.811 34.8813C59.6308 37.1431 58.9185 39.2654 58.0725 41.3383C56.9532 44.0769 55.4967 46.6295 53.6069 48.9204C51.0515 52.0196 48.0657 54.6012 44.5218 56.5287C41.757 58.0347 38.8352 59.0726 35.7535 59.6802C34.8319 59.8604 33.8986 59.8721 32.9712 59.9186C30.471 60.0436 27.9707 60.0174 25.4763 59.811C23.4558 59.6424 21.5341 59.0609 19.6473 58.369C16.1702 57.0927 13.0071 55.2612 10.2306 52.8103C7.48038 50.3799 5.1662 47.586 3.42475 44.327C1.97112 41.6029 0.933233 38.745 0.343059 35.7186C0.180253 34.8842 0.148273 34.0411 0.104664 33.198C-0.0348844 30.4274 -0.0581425 27.6509 0.255841 24.8919C0.526217 22.5109 1.29664 20.252 2.22696 18.057C3.46836 15.1265 5.15748 12.4634 7.25943 10.0766C9.35847 7.69551 11.757 5.65752 14.4898 4.02365C17.3709 2.29092 20.4497 1.05824 23.7436 0.372129C24.8774 0.133734 26.0403 0.151177 27.1887 0.0581452C27.3195 0.0465161 27.462 0.101754 27.5812 0C27.7382 0 27.8922 0 28.0492 0C28.1277 0.0726814 28.2062 0.0726814 28.2847 0C28.4795 0 28.6743 0 28.8691 0C29.1424 0.0930323 29.4156 0.0930323 29.6889 0Z" fill="#FEFEFE"/>
<path d="M22.9354 37.0674C20.534 36.5151 18.9146 35.2155 18.0047 33.0642C17.7023 32.3461 17.836 32.1803 18.5861 32.2734C18.778 32.2966 18.9728 32.2966 19.2141 32.3112C19.1211 32.0757 18.9205 32.0379 18.7751 31.942C16.8825 30.7035 15.8446 28.9678 15.7225 26.7031C15.6847 26.0199 15.8417 25.9239 16.4551 26.1943C16.7836 26.3397 17.1005 26.5374 17.5569 26.5374C16.6412 25.4878 16.0452 24.3511 15.8417 23.0225C15.6294 21.6444 15.8504 20.3449 16.4696 19.1064C16.7894 18.4697 16.9435 18.4552 17.4145 19.0017C20.0456 22.0805 23.3511 23.9964 27.3282 24.7523C27.6713 24.8192 28.0202 24.8744 28.369 24.9122C29.0755 24.9907 29.1046 24.9587 29.0755 24.261C29.0028 22.6184 29.436 21.1357 30.4797 19.8536C32.6863 17.1469 36.7565 16.7108 39.5067 18.9087C39.969 19.2779 40.3935 19.3826 40.9546 19.1965C41.8064 18.9116 42.6379 18.586 43.4228 18.1499C43.6176 18.0424 43.824 17.8505 44.0624 18.0394C44.3386 18.2575 44.1409 18.5133 44.0624 18.7314C43.7659 19.5396 43.2891 20.2461 42.6669 20.9409C43.3094 20.9612 43.7862 20.6909 44.2863 20.5106C44.4956 20.435 44.7195 20.2664 44.923 20.5193C45.1265 20.7752 44.9171 20.9554 44.7892 21.1386C44.2107 21.9788 43.5565 22.7608 42.7541 23.3859C42.1465 23.8598 42.0157 24.4354 41.9692 25.1622C41.536 32.0234 38.5125 37.3785 32.32 40.5242C26.8398 43.3064 21.2288 43.0738 15.7486 40.2567C15.644 40.2044 15.5451 40.1404 15.4434 40.0823C15.2079 39.9485 15.016 39.777 15.0858 39.4805C15.1614 39.1578 15.4085 39.0764 15.7137 39.0822C17.0278 39.1142 18.3216 38.9862 19.5891 38.6228C20.7433 38.2914 21.8364 37.8175 22.9354 37.0674Z" fill="#99CC66"/>
</g>
<defs>
<clipPath id="clip0_1_366">
<rect width="60" height="59.9913" fill="white"/>
</clipPath>
</defs>
</svg>
