<svg width="60" height="60" viewBox="0 0 60 60" fill="none" xmlns="http://www.w3.org/2000/svg">
<mask id="mask0_1_376" style="mask-type:alpha" maskUnits="userSpaceOnUse" x="0" y="0" width="60" height="60">
<circle cx="30" cy="30" r="30" fill="#D9D9D9"/>
</mask>
<g mask="url(#mask0_1_376)">
<mask id="mask1_1_376" style="mask-type:alpha" maskUnits="userSpaceOnUse" x="0" y="0" width="60" height="60">
<circle cx="30" cy="30" r="30" fill="#D9D9D9"/>
</mask>
<g mask="url(#mask1_1_376)">
<g clip-path="url(#clip0_1_376)">
<path d="M29.6244 0C30.2891 0 30.9538 0 31.6131 0C31.6779 0.0702513 31.7644 0.0540394 31.8454 0.0594434C31.9319 0.0540394 32.0184 0.0702513 32.0832 0C32.2021 0 32.3156 0 32.4345 0C33.2397 0.129695 34.0557 0.118887 34.8608 0.17833C37.0657 0.351256 39.1354 1.04296 41.1673 1.84815C44.7393 3.26398 47.9168 5.30667 50.7106 7.96001C53.2559 10.3756 55.3634 13.1046 56.9414 16.2335C58.341 19.0003 59.4326 21.886 59.7892 24.9824C60.0648 27.3872 60 29.819 59.973 32.2453C59.9352 35.3526 59.2651 38.2978 58.1086 41.1456C56.6225 44.7933 54.5582 48.0681 51.7968 50.9106C49.4245 53.3586 46.7657 55.4012 43.7341 56.9468C40.9727 58.3518 38.0762 59.4272 34.9851 59.7892C32.629 60.0648 30.2567 60.0757 27.879 59.9676C26.3821 59.8973 24.8906 59.8811 23.4207 59.5461C18.5842 58.4275 14.2448 56.3145 10.4566 53.0938C7.30073 50.3972 4.75547 47.2197 2.89111 43.518C1.70224 41.1564 0.8214 38.676 0.329641 36.0713C0.129695 35.0068 0.135099 33.9098 0.0594434 32.829C0.0486355 32.6939 0.102675 32.5534 0 32.4345C0 32.2021 0 31.9643 0 31.732C0.124291 31.5104 0.0270197 31.2726 0.0594434 31.0457C0.0324237 30.8457 0.118887 30.635 0 30.4458C0 30.1324 0 29.819 0 29.5109C0.0918671 29.2786 0.0918671 29.0408 0 28.8084C0 28.6139 0 28.4193 0 28.2248C0.0702513 28.1491 0.0702513 28.0681 0 27.9924C0 27.7979 0 27.6034 0 27.4088C0.162118 26.6306 0.145907 25.8363 0.20535 25.0473C0.4107 22.4426 1.30235 20.0378 2.3237 17.6763C3.49635 14.9527 5.09592 12.4831 7.04134 10.2459C9.41367 7.51689 12.1643 5.23102 15.3418 3.49095C17.9573 2.0589 20.7133 0.988922 23.6369 0.38368C24.8041 0.145907 25.993 0.156714 27.1764 0.0702513C27.3332 0.0486355 27.4953 0.108079 27.6358 0C27.7547 0 27.8681 0 27.987 0C28.0627 0.0702513 28.1437 0.0702513 28.2194 0C28.4139 0 28.6085 0 28.803 0C29.0786 0.0918671 29.3488 0.0918671 29.6244 0Z" fill="white"/>
<path d="M33.2559 25.3229C33.2505 26.5874 33.0451 27.8574 33.2559 29.1219C33.3369 29.6299 33.2937 30.2621 33.8989 30.4567C34.4772 30.6458 34.7528 30.1 35.0716 29.7541C36.9522 27.7006 38.2923 25.3121 39.3407 22.7506C39.4488 22.4804 39.5623 22.2102 39.6812 21.94C39.8973 21.4483 40.2702 21.1673 40.8106 21.1511C43.0316 21.0916 45.258 21.0484 47.479 21.1673C48.6193 21.2267 48.8895 21.7131 48.5544 22.8155C48.1924 23.9719 47.5547 24.9771 46.8576 25.939C45.7336 27.4845 44.5988 29.0192 43.4693 30.5647C42.2751 32.1967 42.2967 32.5804 43.7125 33.98C45.2905 35.5472 46.9278 37.0603 48.1491 38.9408C48.2572 39.103 48.3707 39.2651 48.4626 39.4326C49.0462 40.535 48.5274 41.5618 47.2845 41.6806C45.2796 41.8752 43.2694 41.7509 41.2645 41.6482C40.3242 41.5996 39.5136 41.124 38.8544 40.4431C38.0276 39.5893 37.2224 38.7085 36.3956 37.8547C36.0983 37.5466 35.7795 37.2494 35.4337 37.0062C34.7041 36.4875 34.0124 36.7252 33.7584 37.5845C33.5207 38.3896 33.3694 39.2165 33.2667 40.0487C33.1424 41.1132 32.7317 41.5185 31.6563 41.605C26.5442 42.0103 22.4318 40.0973 19.2326 36.174C15.8876 32.0724 13.5261 27.3926 11.3969 22.5885C10.9916 21.6698 11.3807 21.0862 12.3696 21.0862C14.0448 21.0862 15.7255 21.1132 17.4007 21.1132C18.4653 21.1132 19.157 21.5996 19.5407 22.5939C20.4972 25.0635 21.8103 27.3386 23.4153 29.4407C23.6639 29.7704 23.9395 30.073 24.2691 30.3162C24.9014 30.7755 25.3121 30.6458 25.5228 29.9C25.7336 29.1651 25.8363 28.414 25.8579 27.652C25.9011 26.4037 25.8254 25.1554 25.7552 23.9071C25.6958 22.8425 25.231 22.2967 24.1826 21.9941C23.5396 21.8103 23.4585 21.5131 23.9179 21.0106C24.3718 20.5188 24.9662 20.3243 25.5985 20.2972C27.5871 20.2108 29.5758 20.1567 31.559 20.3729C32.6939 20.4972 33.1964 21.0214 33.2505 22.1616C33.2937 23.2154 33.2559 24.2691 33.2559 25.3229Z" fill="#99CC66"/>
</g>
</g>
</g>
<defs>
<clipPath id="clip0_1_376">
<rect width="60" height="60.027" fill="white"/>
</clipPath>
</defs>
</svg>
