<svg width="120" height="120" viewBox="0 0 120 120" fill="none" xmlns="http://www.w3.org/2000/svg">
<circle cx="60" cy="60" r="60" fill="white"/>
<path d="M68.1667 89.8333H66C66 90.2357 66.1121 90.6301 66.3236 90.9724C66.5351 91.3147 66.8378 91.5913 67.1977 91.7713C67.5576 91.9512 67.9605 92.0274 68.3612 91.9912C68.762 91.9551 69.1448 91.8081 69.4667 91.5667L68.1667 89.8333ZM76.8333 83.3333L78.1333 81.6C77.7583 81.3187 77.3021 81.1667 76.8333 81.1667C76.3645 81.1667 75.9084 81.3187 75.5333 81.6L76.8333 83.3333ZM85.5 89.8333L84.2 91.5667C84.5219 91.8081 84.9047 91.9551 85.3054 91.9912C85.7062 92.0274 86.1091 91.9512 86.469 91.7713C86.8289 91.5913 87.1315 91.3147 87.3431 90.9724C87.5546 90.6301 87.6667 90.2357 87.6667 89.8333H85.5ZM76.8333 74.6667C73.9602 74.6667 71.2047 73.5253 69.173 71.4937C67.1414 69.462 66 66.7065 66 63.8333H61.6667C61.6667 67.8558 63.2646 71.7135 66.1089 74.5578C68.9532 77.4021 72.8109 79 76.8333 79V74.6667ZM87.6667 63.8333C87.6667 66.7065 86.5253 69.462 84.4937 71.4937C82.462 73.5253 79.7065 74.6667 76.8333 74.6667V79C80.8558 79 84.7135 77.4021 87.5578 74.5578C90.4021 71.7135 92 67.8558 92 63.8333H87.6667ZM76.8333 53C79.7065 53 82.462 54.1414 84.4937 56.173C86.5253 58.2047 87.6667 60.9602 87.6667 63.8333H92C92 59.8109 90.4021 55.9532 87.5578 53.1089C84.7135 50.2646 80.8558 48.6667 76.8333 48.6667V53ZM76.8333 48.6667C72.8109 48.6667 68.9532 50.2646 66.1089 53.1089C63.2646 55.9532 61.6667 59.8109 61.6667 63.8333H66C66 60.9602 67.1414 58.2047 69.173 56.173C71.2047 54.1414 73.9602 53 76.8333 53V48.6667ZM66 72.5V89.8333H70.3333V72.5H66ZM69.4667 91.5667L78.1333 85.0667L75.5333 81.6L66.8667 88.1L69.4667 91.5667ZM75.5333 85.0667L84.2 91.5667L86.8 88.1L78.1333 81.6L75.5333 85.0667ZM87.6667 89.8333V72.5H83.3333V89.8333H87.6667ZM92 48.6667V33.5H87.6667V48.6667H92ZM85.5 27H33.5V31.3333H85.5V27ZM27 33.5V85.5H31.3333V33.5H27ZM33.5 92H61.6667V87.6667H33.5V92ZM27 85.5C27 87.2239 27.6848 88.8772 28.9038 90.0962C30.1228 91.3152 31.7761 92 33.5 92V87.6667C32.9254 87.6667 32.3743 87.4384 31.9679 87.0321C31.5616 86.6257 31.3333 86.0746 31.3333 85.5H27ZM33.5 27C31.7761 27 30.1228 27.6848 28.9038 28.9038C27.6848 30.1228 27 31.7761 27 33.5H31.3333C31.3333 32.9254 31.5616 32.3743 31.9679 31.9679C32.3743 31.5616 32.9254 31.3333 33.5 31.3333V27ZM92 33.5C92 31.7761 91.3152 30.1228 90.0962 28.9038C88.8772 27.6848 87.2239 27 85.5 27V31.3333C86.0746 31.3333 86.6257 31.5616 87.0321 31.9679C87.4384 32.3743 87.6667 32.9254 87.6667 33.5H92ZM40 48.6667H61.6667V44.3333H40V48.6667ZM40 61.6667H53V57.3333H40V61.6667Z" fill="#99CC66"/>
</svg>
