<svg width="120" height="120" viewBox="0 0 120 120" fill="none" xmlns="http://www.w3.org/2000/svg">
<circle cx="60" cy="60" r="60" fill="white"/>
<g clip-path="url(#clip0_17_2363)">
<path d="M83.3317 66.2909C84.986 66.2909 86.5401 66.6042 87.9938 67.2308C89.4476 67.8575 90.7259 68.7097 91.8288 69.7875C92.9317 70.8653 93.7964 72.1436 94.423 73.6224C95.0497 75.1013 95.363 76.6678 95.363 78.3221C95.363 79.6255 95.1625 80.8913 94.7614 82.1195C94.3604 83.3477 93.7588 84.4882 92.9567 85.5409V101.482L83.3317 96.6698L73.7067 101.482V85.5409C72.9297 84.4882 72.3407 83.3477 71.9396 82.1195C71.5386 80.8913 71.3255 79.6255 71.3005 78.3221C71.3005 76.6678 71.6138 75.1138 72.2404 73.66C72.867 72.2063 73.7193 70.9279 74.7971 69.8251C75.8749 68.7222 77.1532 67.8575 78.632 67.2308C80.1109 66.6042 81.6774 66.2909 83.3317 66.2909ZM83.3317 71.1034C82.3291 71.1034 81.3892 71.2914 80.5119 71.6674C79.6346 72.0433 78.8701 72.5572 78.2184 73.2089C77.5668 73.8606 77.0529 74.625 76.6769 75.5023C76.301 76.3796 76.113 77.3195 76.113 78.3221C76.113 79.3247 76.301 80.2647 76.6769 81.142C77.0529 82.0192 77.5668 82.7837 78.2184 83.4354C78.8701 84.0871 79.6346 84.601 80.5119 84.9769C81.3892 85.3529 82.3291 85.5409 83.3317 85.5409C84.3343 85.5409 85.2743 85.3529 86.1516 84.9769C87.0288 84.601 87.7933 84.0871 88.445 83.4354C89.0967 82.7837 89.6105 82.0192 89.9865 81.142C90.3625 80.2647 90.5505 79.3247 90.5505 78.3221C90.5505 77.3195 90.3625 76.3796 89.9865 75.5023C89.6105 74.625 89.0967 73.8606 88.445 73.2089C87.7933 72.5572 87.0288 72.0433 86.1516 71.6674C85.2743 71.2914 84.3343 71.1034 83.3317 71.1034ZM88.1442 93.662V89.3383C86.6403 90.015 85.0362 90.3534 83.3317 90.3534C81.6273 90.3534 80.0231 90.015 78.5192 89.3383V93.662L83.3317 91.2557L88.1442 93.662ZM83.3317 44.6346C82.0033 44.6346 80.7626 44.8853 79.6096 45.3866C78.4566 45.8879 77.4289 46.5772 76.5266 47.4545C75.6242 48.3317 74.9349 49.3469 74.4587 50.4999C73.9824 51.6529 73.7318 52.9061 73.7067 54.2596C73.7067 56.5656 73.1929 58.7338 72.1652 60.764C71.1376 62.7943 69.6838 64.5113 67.8039 65.9149C68.2801 66.1405 68.7313 66.3912 69.1574 66.6669C69.5835 66.9426 70.0222 67.2308 70.4733 67.5316L67.6535 71.4418C66.4253 70.5645 65.0969 69.8877 63.6682 69.4115C62.2394 68.9353 60.7731 68.6971 59.2692 68.6971C57.264 68.6971 55.3967 69.0731 53.6672 69.8251C51.9377 70.577 50.4087 71.6047 49.0803 72.9081C47.7518 74.2115 46.7116 75.753 45.9597 77.5326C45.2077 79.3122 44.8317 81.1796 44.8317 83.1346H40.0192C40.0192 81.3049 40.2699 79.5378 40.7712 77.8334C41.2725 76.1289 41.9868 74.5248 42.9142 73.0209C43.8417 71.517 44.9571 70.1635 46.2604 68.9603C47.5638 67.7572 49.0427 66.7295 50.697 65.8773C48.8421 64.4987 47.4009 62.7943 46.3732 60.764C45.3456 58.7338 44.8317 56.5656 44.8317 54.2596C44.8317 52.9312 44.5811 51.6905 44.0798 50.5375C43.5785 49.3845 42.8892 48.3568 42.0119 47.4545C41.1346 46.5521 40.1195 45.8628 38.9665 45.3866C37.8135 44.9104 36.5602 44.6597 35.2067 44.6346C33.8783 44.6346 32.6376 44.8853 31.4846 45.3866C30.3316 45.8879 29.3039 46.5772 28.4016 47.4545C27.4992 48.3317 26.8099 49.3469 26.3337 50.4999C25.8574 51.6529 25.6068 52.9061 25.5817 54.2596H20.7692C20.7692 52.9563 20.9447 51.6905 21.2956 50.4623C21.6465 49.2341 22.1353 48.0686 22.7619 46.9657C23.3885 45.8628 24.1655 44.8602 25.093 43.9579C26.0204 43.0555 27.0606 42.2785 28.2136 41.6268C27.3864 40.7496 26.7473 39.7344 26.2961 38.5814C25.8449 37.4284 25.6068 36.2378 25.5817 35.0096C25.5817 33.6812 25.8324 32.4405 26.3337 31.2875C26.835 30.1345 27.5243 29.1068 28.4016 28.2045C29.2788 27.3021 30.294 26.6128 31.447 26.1366C32.6 25.6604 33.8532 25.4097 35.2067 25.3846C36.5352 25.3846 37.7759 25.6353 38.9289 26.1366C40.0819 26.6379 41.1096 27.3272 42.0119 28.2045C42.9142 29.0817 43.6035 30.0969 44.0798 31.2499C44.556 32.4029 44.8067 33.6561 44.8317 35.0096C44.8317 36.2378 44.6061 37.4284 44.155 38.5814C43.7038 39.7344 43.0521 40.7496 42.1999 41.6268C44.2552 42.7548 45.9346 44.3088 47.238 46.2889C47.9147 45.2863 48.6918 44.384 49.569 43.5819C50.4463 42.7798 51.3988 42.1031 52.4265 41.5516C53.4541 41.0002 54.5445 40.5741 55.6974 40.2733C56.8504 39.9725 58.041 39.8221 59.2692 39.8221C60.4724 39.8221 61.6504 39.9725 62.8034 40.2733C63.9564 40.5741 65.0467 41.0002 66.0744 41.5516C67.1021 42.1031 68.0671 42.7798 68.9694 43.5819C69.8718 44.384 70.6488 45.2863 71.3005 46.2889C72.6039 44.3088 74.2832 42.7548 76.3386 41.6268C75.5114 40.7496 74.8723 39.7344 74.4211 38.5814C73.9699 37.4284 73.7318 36.2378 73.7067 35.0096C73.7067 33.6812 73.9574 32.4405 74.4587 31.2875C74.96 30.1345 75.6493 29.1068 76.5266 28.2045C77.4038 27.3021 78.419 26.6128 79.572 26.1366C80.725 25.6604 81.9782 25.4097 83.3317 25.3846C84.6602 25.3846 85.9009 25.6353 87.0539 26.1366C88.2069 26.6379 89.2346 27.3272 90.1369 28.2045C91.0392 29.0817 91.7285 30.0969 92.2048 31.2499C92.681 32.4029 92.9317 33.6561 92.9567 35.0096C92.9567 36.2378 92.7311 37.4284 92.28 38.5814C91.8288 39.7344 91.1771 40.7496 90.3249 41.6268C91.4779 42.2785 92.5056 43.0555 93.4079 43.9579C94.3102 44.8602 95.0873 45.8503 95.739 46.9281C96.3906 48.0059 96.8919 49.1714 97.2429 50.4247C97.5938 51.6779 97.7692 52.9563 97.7692 54.2596H92.9567C92.9567 52.9312 92.7061 51.6905 92.2048 50.5375C91.7035 49.3845 91.0142 48.3568 90.1369 47.4545C89.2596 46.5521 88.2445 45.8628 87.0915 45.3866C85.9385 44.9104 84.6852 44.6597 83.3317 44.6346ZM78.5192 35.0096C78.5192 35.6864 78.6446 36.313 78.8952 36.8895C79.1459 37.466 79.4842 37.9673 79.9103 38.3934C80.3364 38.8195 80.8503 39.1705 81.4518 39.4462C82.0534 39.7219 82.68 39.8472 83.3317 39.8221C84.0085 39.8221 84.6351 39.6968 85.2116 39.4462C85.7881 39.1955 86.2894 38.8571 86.7155 38.431C87.1416 38.0049 87.4925 37.4911 87.7682 36.8895C88.044 36.288 88.1693 35.6613 88.1442 35.0096C88.1442 34.3329 88.0189 33.7063 87.7682 33.1298C87.5176 32.5533 87.1792 32.052 86.7531 31.6259C86.327 31.1997 85.8132 30.8488 85.2116 30.5731C84.61 30.2974 83.9834 30.1721 83.3317 30.1971C82.655 30.1971 82.0283 30.3225 81.4518 30.5731C80.8753 30.8238 80.374 31.1621 79.9479 31.5883C79.5218 32.0144 79.1709 32.5282 78.8952 33.1298C78.6195 33.7313 78.4942 34.358 78.5192 35.0096ZM30.3942 35.0096C30.3942 35.6864 30.5196 36.313 30.7702 36.8895C31.0209 37.466 31.3592 37.9673 31.7853 38.3934C32.2114 38.8195 32.7253 39.1705 33.3268 39.4462C33.9284 39.7219 34.555 39.8472 35.2067 39.8221C35.8835 39.8221 36.5101 39.6968 37.0866 39.4462C37.6631 39.1955 38.1644 38.8571 38.5905 38.431C39.0166 38.0049 39.3675 37.4911 39.6432 36.8895C39.919 36.288 40.0443 35.6613 40.0192 35.0096C40.0192 34.3329 39.8939 33.7063 39.6432 33.1298C39.3926 32.5533 39.0542 32.052 38.6281 31.6259C38.202 31.1997 37.6882 30.8488 37.0866 30.5731C36.485 30.2974 35.8584 30.1721 35.2067 30.1971C34.53 30.1971 33.9033 30.3225 33.3268 30.5731C32.7503 30.8238 32.249 31.1621 31.8229 31.5883C31.3968 32.0144 31.0459 32.5282 30.7702 33.1298C30.4945 33.7313 30.3692 34.358 30.3942 35.0096ZM49.6442 54.2596C49.6442 55.5881 49.8949 56.8288 50.3962 57.9818C50.8975 59.1348 51.5868 60.1625 52.4641 61.0648C53.3413 61.9672 54.3565 62.6565 55.5095 63.1327C56.6625 63.6089 57.9157 63.8596 59.2692 63.8846C60.5977 63.8846 61.8384 63.634 62.9914 63.1327C64.1444 62.6314 65.1721 61.9421 66.0744 61.0648C66.9767 60.1875 67.666 59.1724 68.1423 58.0194C68.6185 56.8664 68.8692 55.6132 68.8942 54.2596C68.8942 52.9312 68.6436 51.6905 68.1423 50.5375C67.641 49.3845 66.9517 48.3568 66.0744 47.4545C65.1971 46.5521 64.182 45.8628 63.029 45.3866C61.876 44.9104 60.6227 44.6597 59.2692 44.6346C57.9408 44.6346 56.7001 44.8853 55.5471 45.3866C54.3941 45.8879 53.3664 46.5772 52.4641 47.4545C51.5617 48.3317 50.8724 49.3469 50.3962 50.4999C49.9199 51.6529 49.6693 52.9061 49.6442 54.2596Z" fill="#99CC66"/>
</g>
<defs>
<clipPath id="clip0_17_2363">
<rect width="77" height="77" fill="white" transform="translate(20.7692 25.3846)"/>
</clipPath>
</defs>
</svg>
