<svg width="120" height="120" viewBox="0 0 120 120" fill="none" xmlns="http://www.w3.org/2000/svg">
<circle cx="60" cy="60" r="60" fill="white"/>
<path d="M60.5 87C45.0625 72.9925 33 61.2675 33 51.875C33 45.375 39.375 39 45.875 39C50.88 39 55.7775 41.58 57.5 46H63.5C65.2225 41.58 70.12 39 75.125 39C81.625 39 88 45.375 88 51.875C88 61.2675 75.97 72.9925 60.5 87ZM75.125 34C69.47 34 64.0425 36.6325 60.5 40.76C56.9575 36.6325 51.53 34 45.875 34C35.865 34 28 41.8325 28 51.875C28 64.1275 39.05 74.17 55.7875 89.3475L60.5 93.6375L65.2125 89.3475C81.95 74.17 93 64.1275 93 51.875C93 41.8325 85.135 34 75.125 34Z" fill="#99CC66"/>
</svg>
