<svg width="27" height="37" viewBox="0 0 27 37" fill="none" xmlns="http://www.w3.org/2000/svg">
<path d="M13.5002 17.6042C12.3122 17.6042 11.1729 17.1323 10.3329 16.2923C9.49291 15.4523 9.021 14.313 9.021 13.125C9.021 11.9371 9.49291 10.7978 10.3329 9.95779C11.1729 9.11778 12.3122 8.64587 13.5002 8.64587C14.6881 8.64587 15.8274 9.11778 16.6674 9.95779C17.5074 10.7978 17.9793 11.9371 17.9793 13.125C17.9793 13.7133 17.8635 14.2957 17.6384 14.8391C17.4133 15.3826 17.0833 15.8764 16.6674 16.2923C16.2515 16.7082 15.7577 17.0382 15.2143 17.2633C14.6708 17.4883 14.0884 17.6042 13.5002 17.6042ZM13.5002 0.583374C10.1739 0.583374 6.98388 1.90472 4.63187 4.25674C2.27985 6.60876 0.958496 9.79878 0.958496 13.125C0.958496 22.5313 13.5002 36.4167 13.5002 36.4167C13.5002 36.4167 26.0418 22.5313 26.0418 13.125C26.0418 9.79878 24.7205 6.60876 22.3685 4.25674C20.0164 1.90472 16.8264 0.583374 13.5002 0.583374Z" fill="black"/>
</svg>
