<svg width="100" height="100" viewBox="0 0 100 100" fill="none" xmlns="http://www.w3.org/2000/svg">
<path d="M29.6796 49.9999H49.9157V29.7979C49.9157 15.1515 38.1113 3.36694 23.6088 3.36694H3.37268V23.569C3.37268 38.2154 15.1771 49.9999 29.6796 49.9999Z" stroke="#99CC66" stroke-width="4" stroke-miterlimit="10"/>
<path d="M23.6088 96.4646H3.37268V76.2626C3.37268 61.7845 15.1771 50 29.6796 50H49.9157V70.202C49.9157 84.6801 38.1113 96.4646 23.6088 96.4646Z" stroke="#99CC66" stroke-width="4" stroke-miterlimit="10"/>
<path d="M70.3204 49.9999H50.0844V29.7979C50.0844 15.3198 61.8887 3.53528 76.3913 3.53528H96.6274V23.7373C96.6274 38.2154 84.823 49.9999 70.3204 49.9999Z" stroke="#99CC66" stroke-width="4" stroke-miterlimit="10"/>
<path d="M76.3913 96.6329H96.6274V76.4308C96.6274 61.9527 84.823 50.1682 70.3204 50.1682H50.0844V70.3702C50.0844 84.8483 61.8887 96.6329 76.3913 96.6329Z" stroke="#99CC66" stroke-width="4" stroke-miterlimit="10"/>
</svg>
