<svg width="100" height="100" viewBox="0 0 100 100" fill="none" xmlns="http://www.w3.org/2000/svg">
<path d="M48.5714 96.6217H51.2605C53.7815 96.6217 55.7983 94.5946 55.7983 92.0608V7.93923C55.7983 5.40544 53.7815 3.37842 51.2605 3.37842H48.5714C46.0504 3.37842 44.0336 5.40544 44.0336 7.93923V92.0608C44.0336 94.5946 46.0504 96.6217 48.5714 96.6217Z" stroke="#99CC66" stroke-width="4" stroke-miterlimit="10"/>
<path d="M26.0504 54.5608H44.2017V37.8379C44.2017 25.3379 34.1176 15.0338 21.5126 15.0338H3.36133V31.7568C3.36133 44.4257 13.4454 54.5608 26.0504 54.5608Z" stroke="#99CC66" stroke-width="4" stroke-miterlimit="10"/>
<path d="M73.9496 78.7162H55.7983V61.9933C55.7983 49.4933 65.8824 39.1892 78.4874 39.1892H96.6387V55.9122C96.6387 68.5811 86.3866 78.7162 73.9496 78.7162Z" stroke="#99CC66" stroke-width="4" stroke-miterlimit="10"/>
</svg>
