<svg width="19" height="33" viewBox="0 0 19 33" fill="none" xmlns="http://www.w3.org/2000/svg">
<path d="M3.75036 1.46459L17.815 15.4875C17.982 15.6545 18.0999 15.8353 18.1689 16.0301C18.2391 16.2248 18.2741 16.4335 18.2741 16.6561C18.2741 16.8787 18.2391 17.0874 18.1689 17.2821C18.0999 17.4769 17.982 17.6577 17.815 17.8247L3.75036 31.8893C3.36083 32.2789 2.87393 32.4736 2.28964 32.4736C1.70535 32.4736 1.20453 32.265 0.787182 31.8476C0.369833 31.4303 0.161158 30.9434 0.161158 30.3869C0.161158 29.8304 0.369833 29.3435 0.787182 28.9262L13.0572 16.6561L0.787182 4.38604C0.397655 3.99651 0.202892 3.51684 0.202892 2.94702C0.202892 2.37608 0.411566 1.88194 0.828915 1.46459C1.24627 1.04724 1.73317 0.838568 2.28964 0.838568C2.8461 0.838568 3.33301 1.04724 3.75036 1.46459Z" fill="white" fill-opacity="0.6"/>
</svg>
