<svg width="19" height="33" viewBox="0 0 19 33" fill="none" xmlns="http://www.w3.org/2000/svg">
<path d="M15.2496 31.8475L1.18497 17.8246C1.01803 17.6577 0.900064 17.4768 0.831063 17.2821C0.760948 17.0873 0.725891 16.8786 0.725891 16.656C0.725891 16.4334 0.760948 16.2248 0.831063 16.03C0.900064 15.8352 1.01803 15.6544 1.18497 15.4875L15.2496 1.42279C15.6392 1.03326 16.1261 0.838501 16.7104 0.838501C17.2947 0.838501 17.7955 1.04718 18.2128 1.46452C18.6302 1.88187 18.8388 2.36878 18.8388 2.92525C18.8388 3.48171 18.6302 3.96862 18.2128 4.38597L5.94276 16.656L18.2128 28.9261C18.6023 29.3156 18.7971 29.7953 18.7971 30.3651C18.7971 30.9361 18.5884 31.4302 18.1711 31.8475C17.7537 32.2649 17.2668 32.4736 16.7104 32.4736C16.1539 32.4736 15.667 32.2649 15.2496 31.8475Z" fill="white" fill-opacity="0.6"/>
</svg>
