<svg width="45" height="45" viewBox="0 0 45 45" fill="none" xmlns="http://www.w3.org/2000/svg">
<path d="M40.0781 22.5C40.0781 23.0594 39.8559 23.596 39.4603 23.9915C39.0647 24.3871 38.5282 24.6094 37.9687 24.6094H12.1289L21.1816 33.6621C21.3783 33.8581 21.5343 34.0909 21.6408 34.3473C21.7472 34.6037 21.802 34.8786 21.802 35.1562C21.802 35.4339 21.7472 35.7088 21.6408 35.9652C21.5343 36.2216 21.3783 36.4544 21.1816 36.6504C20.7836 37.0433 20.2468 37.2636 19.6875 37.2636C19.1282 37.2636 18.5914 37.0433 18.1934 36.6504L5.5371 23.9941C5.34045 23.7982 5.18442 23.5653 5.07796 23.3089C4.97149 23.0525 4.91669 22.7776 4.91669 22.5C4.91669 22.2224 4.97149 21.9475 5.07796 21.6911C5.18442 21.4347 5.34045 21.2018 5.5371 21.0059L18.1934 8.34961C18.5896 7.95334 19.1271 7.73071 19.6875 7.73071C19.965 7.73071 20.2397 7.78537 20.4961 7.89156C20.7525 7.99775 20.9854 8.15339 21.1816 8.34961C21.3778 8.54582 21.5335 8.77876 21.6397 9.03512C21.7459 9.29149 21.8005 9.56626 21.8005 9.84375C21.8005 10.1212 21.7459 10.396 21.6397 10.6524C21.5335 10.9087 21.3778 11.1417 21.1816 11.3379L12.1289 20.3906H37.9687C38.5282 20.3906 39.0647 20.6129 39.4603 21.0084C39.8559 21.404 40.0781 21.9406 40.0781 22.5Z" fill="black"/>
</svg>
