<svg width="19" height="32" viewBox="0 0 19 32" fill="none" xmlns="http://www.w3.org/2000/svg">
<path d="M3.75036 0.841423L17.815 14.8644C17.982 15.0313 18.0999 15.2121 18.1689 15.4069C18.2391 15.6017 18.2741 15.8103 18.2741 16.0329C18.2741 16.2555 18.2391 16.4642 18.1689 16.659C18.0999 16.8537 17.982 17.0346 17.815 17.2015L3.75036 31.2662C3.36083 31.6557 2.87393 31.8505 2.28964 31.8505C1.70535 31.8505 1.20453 31.6418 0.787182 31.2244C0.369833 30.8071 0.161158 30.3202 0.161158 29.7637C0.161158 29.2073 0.369833 28.7203 0.787182 28.303L13.0572 16.0329L0.787182 3.76287C0.397655 3.37334 0.202892 2.89367 0.202892 2.32385C0.202892 1.75291 0.411566 1.25877 0.828915 0.841423C1.24627 0.424072 1.73317 0.215399 2.28964 0.215399C2.8461 0.215399 3.33301 0.424072 3.75036 0.841423Z" fill="black"/>
</svg>
