<svg width="19" height="32" viewBox="0 0 19 32" fill="none" xmlns="http://www.w3.org/2000/svg">
<path d="M15.2496 31.2243L1.18497 17.2013C1.01803 17.0344 0.900064 16.8535 0.831063 16.6588C0.760948 16.464 0.725891 16.2553 0.725891 16.0327C0.725891 15.8102 0.760948 15.6015 0.831063 15.4067C0.900064 15.212 1.01803 15.0311 1.18497 14.8642L15.2496 0.799499C15.6392 0.409973 16.1261 0.21521 16.7104 0.21521C17.2947 0.21521 17.7955 0.423885 18.2128 0.841234C18.6302 1.25858 18.8388 1.74549 18.8388 2.30196C18.8388 2.85842 18.6302 3.34533 18.2128 3.76268L5.94276 16.0327L18.2128 28.3028C18.6023 28.6923 18.7971 29.172 18.7971 29.7418C18.7971 30.3128 18.5884 30.8069 18.1711 31.2243C17.7537 31.6416 17.2668 31.8503 16.7104 31.8503C16.1539 31.8503 15.667 31.6416 15.2496 31.2243Z" fill="black"/>
</svg>
